<mxfile host="app.diagrams.net" modified="2024-03-31T08:19:02.250Z" agent="Mozilla/5.0 (Windows NT 10.0; Win64; x64) AppleWebKit/537.36 (KHTML, like Gecko) Chrome/122.0.0.0 Safari/537.36" etag="-qhopv7thnyYxY6U8vWw" version="24.0.7" type="device">
  <diagram name="Page-1" id="lhrk6l9QNQkCiQqjaK1-">
    <mxGraphModel dx="544" dy="551" grid="1" gridSize="10" guides="1" tooltips="1" connect="1" arrows="1" fold="1" page="1" pageScale="1" pageWidth="1169" pageHeight="827" math="0" shadow="0">
      <root>
        <mxCell id="0" />
        <mxCell id="1" parent="0" />
        <mxCell id="5XKgIc0XqBLhn1GteVfO-1" value="Client&lt;div&gt;&lt;br&gt;&lt;/div&gt;" style="shape=umlActor;verticalLabelPosition=bottom;verticalAlign=top;html=1;outlineConnect=0;" vertex="1" parent="1">
          <mxGeometry x="50" y="60" width="30" height="60" as="geometry" />
        </mxCell>
        <mxCell id="5XKgIc0XqBLhn1GteVfO-2" value="vizualizare camere" style="ellipse;whiteSpace=wrap;html=1;" vertex="1" parent="1">
          <mxGeometry x="270" y="50" width="130" height="60" as="geometry" />
        </mxCell>
        <mxCell id="5XKgIc0XqBLhn1GteVfO-3" value="filtrare camere" style="ellipse;whiteSpace=wrap;html=1;" vertex="1" parent="1">
          <mxGeometry x="270" y="130" width="130" height="60" as="geometry" />
        </mxCell>
      </root>
    </mxGraphModel>
  </diagram>
</mxfile>
